<?xml version="1.0" encoding="UTF-8" ?>
<!DOCTYPE svg PUBLIC "-//W3C//DTD SVG 1.1//EN" "http://www.w3.org/Graphics/SVG/1.1/DTD/svg11.dtd">
<svg width="1078pt" height="1078pt" viewBox="0 0 1078 1078" version="1.1" xmlns="http://www.w3.org/2000/svg">
<g id="#000000ff">
<path fill="#000000" opacity="1.00" d=" M 169.89 37.08 C 218.50 26.96 268.74 27.30 317.88 33.09 C 317.88 84.62 317.89 136.14 317.88 187.67 C 295.33 185.47 272.51 184.98 250.01 187.90 C 221.77 191.56 192.98 201.01 172.11 221.16 C 153.54 238.71 143.82 263.90 141.70 289.03 C 138.64 324.23 146.68 359.33 157.63 392.58 C 167.29 421.45 179.73 449.33 193.50 476.46 C 227.33 542.62 268.71 604.62 312.47 664.56 C 313.90 666.94 316.67 668.93 316.48 671.95 C 316.45 726.04 316.49 780.14 316.46 834.23 C 223.09 747.30 143.64 644.85 86.25 530.74 C 60.86 480.21 38.30 428.08 21.92 373.90 C 9.68 333.15 1.11 291.04 0.00 248.40 L 0.00 237.52 C 0.58 209.76 4.70 181.82 14.83 155.87 C 25.81 127.22 44.42 101.53 68.41 82.38 C 97.62 58.83 133.44 44.78 169.89 37.08 Z" />
<path fill="#000000" opacity="1.00" d=" M 331.77 33.77 C 384.62 86.58 437.42 139.43 490.27 192.24 C 490.32 278.03 490.30 363.81 490.28 449.60 C 634.08 366.48 777.95 283.49 921.78 200.44 C 902.45 272.61 883.09 344.78 863.77 416.96 C 739.31 488.89 614.78 560.67 490.33 632.62 C 490.23 769.05 490.33 905.49 490.28 1041.92 C 437.43 988.64 384.59 935.34 331.77 882.02 C 331.76 599.27 331.76 316.52 331.77 33.77 Z" />
<path fill="#000000" opacity="1.00" d=" M 361.42 39.96 C 418.23 50.76 473.13 69.85 526.09 92.82 C 600.11 125.10 670.79 164.92 737.21 210.82 C 757.66 224.99 777.69 239.78 797.22 255.20 C 753.03 280.98 708.81 306.70 664.62 332.47 C 633.71 311.89 601.97 292.59 569.67 274.28 C 549.20 262.93 528.37 252.24 507.03 242.64 C 506.96 225.40 507.03 208.15 506.99 190.91 C 458.48 140.59 409.92 90.30 361.42 39.96 Z" />
<path fill="#000000" opacity="1.00" d=" M 896.72 344.43 C 936.43 385.05 972.43 429.51 1002.12 478.01 C 1025.72 516.67 1045.22 557.97 1058.45 601.34 C 1076.56 660.24 1082.27 723.04 1073.67 784.12 C 1065.76 850.68 1026.99 912.28 971.65 949.76 C 936.40 973.92 894.64 988.16 852.09 991.49 C 809.33 994.96 766.15 987.76 725.85 973.42 C 685.51 959.04 647.84 937.82 613.19 912.77 C 572.75 883.48 536.20 849.09 502.82 812.03 C 502.83 755.64 502.82 699.25 502.83 642.86 C 520.05 632.25 537.30 621.68 554.55 611.12 C 578.09 638.35 603.91 663.77 632.83 685.28 C 658.59 704.32 687.02 720.43 718.06 729.00 C 738.39 734.65 759.79 736.76 780.79 734.28 C 813.19 730.98 842.59 711.72 861.80 685.89 C 879.23 662.52 887.42 632.85 885.66 603.85 C 884.00 572.91 872.55 543.32 857.21 516.70 C 845.07 495.83 830.50 476.42 814.44 458.43 C 834.59 446.81 855.17 435.88 875.49 424.54 C 882.59 397.84 889.60 371.12 896.72 344.43 Z" />
<path fill="#000000" opacity="1.00" d=" M 504.18 899.07 C 549.80 950.29 596.61 1000.43 643.97 1050.05 C 626.33 1044.36 609.70 1035.97 593.04 1027.94 C 562.62 1012.78 533.02 995.99 504.18 978.03 C 504.18 951.71 504.17 925.39 504.18 899.07 Z" />
</g>
</svg>
