<svg xmlns="http://www.w3.org/2000/svg" xmlns:xlink="http://www.w3.org/1999/xlink" width="500" zoomAndPan="magnify" viewBox="0 0 375 374.999991" height="500" preserveAspectRatio="xMidYMid meet" version="1.0"><defs><g/><clipPath id="166085a323"><path d="M 92.839844 111 L 282.503906 111 L 282.503906 305.925781 L 92.839844 305.925781 Z M 92.839844 111 " clip-rule="nonzero"/></clipPath><clipPath id="a77e2f0c3b"><path d="M 92.839844 53.039062 L 282.503906 53.039062 L 282.503906 124 L 92.839844 124 Z M 92.839844 53.039062 " clip-rule="nonzero"/></clipPath></defs><g clip-path="url(#166085a323)"><path fill="#0b3954" d="M 273.492188 187.023438 C 273.492188 185.765625 273.652344 184.351562 273.652344 183.097656 C 273.652344 163.777344 265.796875 144.457031 251.1875 131.261719 C 234.382812 116.027344 209.566406 111 187.417969 111 C 143.75 111 101.34375 135.03125 101.34375 183.097656 C 101.34375 184.351562 101.34375 185.609375 101.5 187.023438 C 91.917969 190.949219 89.71875 216.082031 96.785156 244.667969 C 104.011719 274.199219 116.734375 297.445312 127.101562 294.933594 C 132.128906 293.675781 135.582031 286.765625 137.15625 276.710938 C 151.292969 293.988281 168.882812 305.925781 187.730469 305.925781 C 206.582031 305.925781 224.171875 293.988281 238.308594 276.710938 C 239.410156 283.78125 241.449219 289.277344 244.277344 292.417969 C 245.0625 293.675781 246.164062 294.460938 247.105469 294.773438 C 247.261719 294.773438 247.417969 294.773438 247.734375 294.933594 C 247.890625 294.933594 248.046875 295.089844 248.363281 295.089844 C 258.730469 297.601562 271.453125 274.199219 278.675781 244.824219 C 285.429688 215.925781 283.230469 190.636719 273.492188 187.023438 Z M 273.492188 187.023438 " fill-opacity="1" fill-rule="nonzero"/></g><path fill="#ffffff" d="M 168.410156 240.113281 L 184.121094 230.6875 L 176.265625 239.015625 L 168.410156 247.339844 L 160.558594 239.015625 L 152.703125 230.6875 Z M 168.410156 240.113281 " fill-opacity="1" fill-rule="nonzero"/><path fill="#ffffff" d="M 134.796875 240.113281 L 150.503906 230.6875 L 142.652344 239.015625 L 134.796875 247.339844 L 126.945312 239.015625 L 119.089844 230.6875 Z M 134.796875 240.113281 " fill-opacity="1" fill-rule="nonzero"/><path fill="#ffffff" d="M 207.050781 240.898438 L 222.757812 231.472656 L 214.90625 239.800781 L 207.050781 248.125 L 199.199219 239.800781 L 191.34375 231.472656 Z M 207.050781 240.898438 " fill-opacity="1" fill-rule="nonzero"/><path fill="#ffffff" d="M 240.351562 240.898438 L 256.058594 231.472656 L 248.203125 239.800781 L 240.351562 248.125 L 232.496094 239.800781 L 224.644531 231.472656 Z M 240.351562 240.898438 " fill-opacity="1" fill-rule="nonzero"/><path fill="#ffffff" d="M 152.703125 263.046875 L 168.410156 253.621094 L 160.558594 261.945312 L 152.703125 270.269531 L 144.851562 261.945312 L 136.996094 253.621094 Z M 152.703125 263.046875 " fill-opacity="1" fill-rule="nonzero"/><path fill="#ffffff" d="M 187.890625 263.046875 L 203.597656 253.621094 L 195.742188 261.945312 L 187.890625 270.269531 L 180.035156 261.945312 L 172.183594 253.621094 Z M 187.890625 263.046875 " fill-opacity="1" fill-rule="nonzero"/><path fill="#ffffff" d="M 223.703125 263.046875 L 239.410156 253.621094 L 231.554688 261.945312 L 223.703125 270.269531 L 215.847656 261.945312 L 207.996094 253.621094 Z M 223.703125 263.046875 " fill-opacity="1" fill-rule="nonzero"/><path fill="#ffffff" d="M 172.183594 283.621094 L 187.890625 274.199219 L 180.035156 282.523438 L 172.183594 290.847656 L 156.472656 274.199219 Z M 172.183594 283.621094 " fill-opacity="1" fill-rule="nonzero"/><path fill="#ffffff" d="M 205.953125 283.621094 L 221.660156 274.199219 L 213.804688 282.523438 L 205.953125 290.847656 L 198.097656 282.523438 L 190.246094 274.199219 Z M 205.953125 283.621094 " fill-opacity="1" fill-rule="nonzero"/><path fill="#ffffff" d="M 200.140625 203.042969 L 187.574219 200.21875 L 175.007812 203.042969 L 175.636719 203.515625 L 175.007812 203.515625 L 181.292969 211.996094 L 187.574219 220.480469 L 193.859375 211.996094 L 200.140625 203.515625 L 199.511719 203.515625 Z M 200.140625 203.042969 " fill-opacity="1" fill-rule="nonzero"/><path fill="#ffffff" d="M 184.277344 174.613281 C 184.277344 175.683594 184.222656 176.75 184.117188 177.816406 C 184.015625 178.882812 183.855469 179.9375 183.648438 180.988281 C 183.441406 182.039062 183.179688 183.074219 182.871094 184.097656 C 182.558594 185.121094 182.199219 186.128906 181.789062 187.117188 C 181.378906 188.105469 180.921875 189.070312 180.417969 190.015625 C 179.914062 190.957031 179.363281 191.875 178.769531 192.765625 C 178.175781 193.65625 177.539062 194.511719 176.859375 195.339844 C 176.179688 196.167969 175.464844 196.960938 174.707031 197.714844 C 173.949219 198.472656 173.160156 199.191406 172.332031 199.871094 C 171.503906 200.546875 170.644531 201.183594 169.757812 201.777344 C 168.867188 202.375 167.949219 202.921875 167.007812 203.425781 C 166.0625 203.933594 165.097656 204.390625 164.109375 204.796875 C 163.121094 205.207031 162.113281 205.566406 161.089844 205.878906 C 160.066406 206.1875 159.027344 206.449219 157.980469 206.65625 C 156.929688 206.867188 155.871094 207.023438 154.808594 207.128906 C 153.742188 207.234375 152.675781 207.285156 151.605469 207.285156 C 150.535156 207.285156 149.46875 207.234375 148.402344 207.128906 C 147.339844 207.023438 146.28125 206.867188 145.230469 206.65625 C 144.183594 206.449219 143.144531 206.1875 142.121094 205.878906 C 141.097656 205.566406 140.089844 205.207031 139.101562 204.796875 C 138.113281 204.390625 137.148438 203.933594 136.203125 203.425781 C 135.261719 202.921875 134.34375 202.375 133.453125 201.777344 C 132.566406 201.183594 131.707031 200.546875 130.878906 199.871094 C 130.050781 199.191406 129.261719 198.472656 128.503906 197.714844 C 127.746094 196.960938 127.027344 196.167969 126.351562 195.339844 C 125.671875 194.511719 125.035156 193.65625 124.441406 192.765625 C 123.847656 191.875 123.296875 190.957031 122.792969 190.015625 C 122.289062 189.070312 121.832031 188.105469 121.421875 187.117188 C 121.011719 186.128906 120.652344 185.121094 120.339844 184.097656 C 120.03125 183.074219 119.769531 182.039062 119.5625 180.988281 C 119.351562 179.9375 119.195312 178.882812 119.089844 177.816406 C 118.988281 176.75 118.933594 175.683594 118.933594 174.613281 C 118.933594 173.542969 118.988281 172.476562 119.089844 171.410156 C 119.195312 170.347656 119.351562 169.289062 119.5625 168.242188 C 119.769531 167.191406 120.03125 166.152344 120.339844 165.128906 C 120.652344 164.105469 121.011719 163.101562 121.421875 162.113281 C 121.832031 161.121094 122.289062 160.15625 122.792969 159.214844 C 123.296875 158.269531 123.847656 157.351562 124.441406 156.464844 C 125.035156 155.574219 125.671875 154.714844 126.351562 153.886719 C 127.027344 153.0625 127.746094 152.269531 128.503906 151.511719 C 129.261719 150.753906 130.050781 150.039062 130.878906 149.359375 C 131.707031 148.679688 132.566406 148.042969 133.453125 147.449219 C 134.34375 146.855469 135.261719 146.304688 136.203125 145.800781 C 137.148438 145.296875 138.113281 144.839844 139.101562 144.429688 C 140.089844 144.019531 141.097656 143.660156 142.121094 143.351562 C 143.144531 143.039062 144.183594 142.78125 145.230469 142.570312 C 146.28125 142.363281 147.339844 142.207031 148.402344 142.101562 C 149.46875 141.996094 150.535156 141.941406 151.605469 141.941406 C 152.675781 141.941406 153.742188 141.996094 154.808594 142.101562 C 155.871094 142.207031 156.929688 142.363281 157.980469 142.570312 C 159.027344 142.78125 160.066406 143.039062 161.089844 143.351562 C 162.113281 143.660156 163.121094 144.019531 164.109375 144.429688 C 165.097656 144.839844 166.0625 145.296875 167.007812 145.800781 C 167.949219 146.304688 168.867188 146.855469 169.757812 147.449219 C 170.644531 148.042969 171.503906 148.679688 172.332031 149.359375 C 173.160156 150.039062 173.949219 150.753906 174.707031 151.511719 C 175.464844 152.269531 176.179688 153.0625 176.859375 153.886719 C 177.539062 154.714844 178.175781 155.574219 178.769531 156.464844 C 179.363281 157.351562 179.914062 158.269531 180.417969 159.214844 C 180.921875 160.15625 181.378906 161.121094 181.789062 162.113281 C 182.199219 163.101562 182.558594 164.105469 182.871094 165.128906 C 183.179688 166.152344 183.441406 167.191406 183.648438 168.242188 C 183.855469 169.289062 184.015625 170.347656 184.117188 171.410156 C 184.222656 172.476562 184.277344 173.542969 184.277344 174.613281 Z M 184.277344 174.613281 " fill-opacity="1" fill-rule="nonzero"/><path fill="#0b3954" d="M 168.253906 174.613281 C 168.253906 175.160156 168.226562 175.703125 168.175781 176.246094 C 168.121094 176.789062 168.042969 177.328125 167.933594 177.863281 C 167.828125 178.398438 167.695312 178.925781 167.539062 179.445312 C 167.378906 179.96875 167.195312 180.480469 166.988281 180.984375 C 166.777344 181.488281 166.546875 181.980469 166.289062 182.460938 C 166.03125 182.945312 165.753906 183.410156 165.449219 183.863281 C 165.144531 184.316406 164.820312 184.753906 164.476562 185.175781 C 164.128906 185.597656 163.765625 186 163.378906 186.386719 C 162.992188 186.773438 162.589844 187.136719 162.167969 187.484375 C 161.746094 187.832031 161.308594 188.15625 160.855469 188.457031 C 160.402344 188.761719 159.933594 189.039062 159.453125 189.296875 C 158.972656 189.554688 158.480469 189.789062 157.976562 189.996094 C 157.472656 190.207031 156.960938 190.386719 156.4375 190.546875 C 155.917969 190.707031 155.386719 190.835938 154.851562 190.945312 C 154.320312 191.050781 153.78125 191.128906 153.238281 191.183594 C 152.695312 191.238281 152.152344 191.265625 151.605469 191.265625 C 151.058594 191.265625 150.515625 191.238281 149.972656 191.183594 C 149.429688 191.128906 148.890625 191.050781 148.355469 190.945312 C 147.824219 190.835938 147.292969 190.707031 146.773438 190.546875 C 146.25 190.386719 145.738281 190.207031 145.234375 189.996094 C 144.730469 189.789062 144.238281 189.554688 143.757812 189.296875 C 143.277344 189.039062 142.808594 188.761719 142.355469 188.457031 C 141.902344 188.15625 141.464844 187.832031 141.042969 187.484375 C 140.621094 187.136719 140.21875 186.773438 139.832031 186.386719 C 139.445312 186 139.082031 185.597656 138.734375 185.175781 C 138.390625 184.753906 138.066406 184.316406 137.761719 183.863281 C 137.457031 183.410156 137.179688 182.945312 136.921875 182.460938 C 136.664062 181.980469 136.433594 181.488281 136.222656 180.984375 C 136.015625 180.480469 135.832031 179.96875 135.671875 179.445312 C 135.515625 178.925781 135.382812 178.398438 135.277344 177.863281 C 135.167969 177.328125 135.089844 176.789062 135.035156 176.246094 C 134.980469 175.703125 134.957031 175.160156 134.957031 174.613281 C 134.957031 174.070312 134.980469 173.523438 135.035156 172.980469 C 135.089844 172.441406 135.167969 171.902344 135.277344 171.367188 C 135.382812 170.832031 135.515625 170.304688 135.671875 169.78125 C 135.832031 169.257812 136.015625 168.746094 136.222656 168.242188 C 136.433594 167.738281 136.664062 167.246094 136.921875 166.765625 C 137.179688 166.285156 137.457031 165.816406 137.761719 165.363281 C 138.066406 164.910156 138.390625 164.472656 138.734375 164.050781 C 139.082031 163.628906 139.445312 163.226562 139.832031 162.839844 C 140.21875 162.457031 140.621094 162.089844 141.042969 161.742188 C 141.464844 161.398438 141.902344 161.074219 142.355469 160.769531 C 142.808594 160.46875 143.277344 160.1875 143.757812 159.929688 C 144.238281 159.671875 144.730469 159.441406 145.234375 159.230469 C 145.738281 159.023438 146.25 158.839844 146.773438 158.679688 C 147.292969 158.523438 147.824219 158.390625 148.355469 158.285156 C 148.890625 158.179688 149.429688 158.097656 149.972656 158.042969 C 150.515625 157.992188 151.058594 157.964844 151.605469 157.964844 C 152.152344 157.964844 152.695312 157.992188 153.238281 158.042969 C 153.78125 158.097656 154.320312 158.179688 154.851562 158.285156 C 155.386719 158.390625 155.917969 158.523438 156.4375 158.679688 C 156.960938 158.839844 157.472656 159.023438 157.976562 159.230469 C 158.480469 159.441406 158.972656 159.671875 159.453125 159.929688 C 159.933594 160.1875 160.402344 160.46875 160.855469 160.769531 C 161.308594 161.074219 161.746094 161.398438 162.167969 161.742188 C 162.589844 162.089844 162.992188 162.457031 163.378906 162.839844 C 163.765625 163.226562 164.128906 163.628906 164.476562 164.050781 C 164.820312 164.472656 165.144531 164.910156 165.449219 165.363281 C 165.75 165.816406 166.03125 166.285156 166.289062 166.765625 C 166.546875 167.246094 166.777344 167.738281 166.988281 168.242188 C 167.195312 168.746094 167.378906 169.257812 167.539062 169.78125 C 167.695312 170.304688 167.828125 170.832031 167.933594 171.367188 C 168.042969 171.902344 168.121094 172.441406 168.175781 172.980469 C 168.226562 173.523438 168.253906 174.070312 168.253906 174.613281 Z M 168.253906 174.613281 " fill-opacity="1" fill-rule="nonzero"/><path fill="#ffffff" d="M 162.757812 180.269531 C 162.757812 180.773438 162.707031 181.273438 162.609375 181.769531 C 162.511719 182.265625 162.363281 182.746094 162.171875 183.214844 C 161.976562 183.679688 161.742188 184.125 161.460938 184.542969 C 161.179688 184.964844 160.859375 185.355469 160.503906 185.710938 C 160.144531 186.066406 159.757812 186.386719 159.335938 186.667969 C 158.917969 186.949219 158.472656 187.1875 158.007812 187.378906 C 157.539062 187.574219 157.058594 187.71875 156.5625 187.816406 C 156.066406 187.914062 155.566406 187.964844 155.0625 187.964844 C 154.554688 187.964844 154.054688 187.914062 153.558594 187.816406 C 153.0625 187.71875 152.582031 187.574219 152.117188 187.378906 C 151.648438 187.1875 151.207031 186.949219 150.785156 186.667969 C 150.363281 186.386719 149.976562 186.066406 149.617188 185.710938 C 149.261719 185.355469 148.941406 184.964844 148.660156 184.542969 C 148.378906 184.125 148.144531 183.679688 147.949219 183.214844 C 147.757812 182.746094 147.609375 182.265625 147.511719 181.769531 C 147.414062 181.273438 147.363281 180.773438 147.363281 180.269531 C 147.363281 179.761719 147.414062 179.261719 147.511719 178.765625 C 147.609375 178.273438 147.757812 177.789062 147.949219 177.324219 C 148.144531 176.855469 148.378906 176.414062 148.660156 175.992188 C 148.941406 175.574219 149.261719 175.183594 149.617188 174.828125 C 149.976562 174.46875 150.363281 174.148438 150.785156 173.871094 C 151.207031 173.589844 151.648438 173.351562 152.117188 173.15625 C 152.582031 172.964844 153.0625 172.820312 153.558594 172.71875 C 154.054688 172.621094 154.554688 172.570312 155.0625 172.570312 C 155.566406 172.570312 156.066406 172.621094 156.5625 172.71875 C 157.058594 172.820312 157.539062 172.964844 158.007812 173.15625 C 158.472656 173.351562 158.917969 173.589844 159.335938 173.871094 C 159.757812 174.148438 160.144531 174.46875 160.503906 174.828125 C 160.859375 175.183594 161.179688 175.574219 161.460938 175.992188 C 161.742188 176.414062 161.976562 176.855469 162.171875 177.324219 C 162.363281 177.789062 162.511719 178.273438 162.609375 178.765625 C 162.707031 179.261719 162.757812 179.761719 162.757812 180.269531 Z M 162.757812 180.269531 " fill-opacity="1" fill-rule="nonzero"/><path fill="#ffffff" d="M 256.214844 174.613281 C 256.214844 175.683594 256.164062 176.75 256.058594 177.816406 C 255.953125 178.882812 255.796875 179.9375 255.585938 180.988281 C 255.378906 182.039062 255.121094 183.074219 254.808594 184.097656 C 254.5 185.121094 254.136719 186.128906 253.730469 187.117188 C 253.320312 188.105469 252.863281 189.070312 252.359375 190.015625 C 251.851562 190.957031 251.304688 191.875 250.710938 192.765625 C 250.113281 193.65625 249.476562 194.511719 248.800781 195.339844 C 248.121094 196.167969 247.402344 196.960938 246.648438 197.714844 C 245.890625 198.472656 245.097656 199.191406 244.269531 199.871094 C 243.445312 200.546875 242.585938 201.183594 241.695312 201.777344 C 240.804688 202.375 239.890625 202.921875 238.945312 203.425781 C 238 203.933594 237.035156 204.390625 236.046875 204.796875 C 235.058594 205.207031 234.050781 205.566406 233.027344 205.878906 C 232.003906 206.1875 230.96875 206.449219 229.917969 206.65625 C 228.867188 206.867188 227.8125 207.023438 226.746094 207.128906 C 225.683594 207.234375 224.613281 207.285156 223.542969 207.285156 C 222.472656 207.285156 221.40625 207.234375 220.34375 207.128906 C 219.277344 207.023438 218.21875 206.867188 217.171875 206.65625 C 216.121094 206.449219 215.085938 206.1875 214.0625 205.878906 C 213.035156 205.566406 212.03125 205.207031 211.042969 204.796875 C 210.054688 204.390625 209.085938 203.933594 208.144531 203.425781 C 207.199219 202.921875 206.28125 202.375 205.394531 201.777344 C 204.503906 201.183594 203.644531 200.546875 202.816406 199.871094 C 201.992188 199.191406 201.199219 198.472656 200.441406 197.714844 C 199.6875 196.960938 198.96875 196.167969 198.289062 195.339844 C 197.609375 194.511719 196.972656 193.65625 196.378906 192.765625 C 195.785156 191.875 195.234375 190.957031 194.730469 190.015625 C 194.226562 189.070312 193.769531 188.105469 193.359375 187.117188 C 192.949219 186.128906 192.589844 185.121094 192.28125 184.097656 C 191.96875 183.074219 191.710938 182.039062 191.5 180.988281 C 191.292969 179.9375 191.136719 178.882812 191.03125 177.816406 C 190.925781 176.75 190.875 175.683594 190.875 174.613281 C 190.875 173.542969 190.925781 172.476562 191.03125 171.410156 C 191.136719 170.347656 191.292969 169.289062 191.5 168.242188 C 191.710938 167.191406 191.96875 166.152344 192.28125 165.128906 C 192.589844 164.105469 192.949219 163.101562 193.359375 162.113281 C 193.769531 161.121094 194.226562 160.15625 194.730469 159.214844 C 195.234375 158.269531 195.785156 157.351562 196.378906 156.464844 C 196.972656 155.574219 197.609375 154.714844 198.289062 153.886719 C 198.96875 153.0625 199.6875 152.269531 200.441406 151.511719 C 201.199219 150.753906 201.992188 150.039062 202.816406 149.359375 C 203.644531 148.679688 204.503906 148.042969 205.394531 147.449219 C 206.28125 146.855469 207.199219 146.304688 208.144531 145.800781 C 209.085938 145.296875 210.054688 144.839844 211.042969 144.429688 C 212.03125 144.019531 213.035156 143.660156 214.0625 143.351562 C 215.085938 143.039062 216.121094 142.78125 217.171875 142.570312 C 218.21875 142.363281 219.277344 142.207031 220.34375 142.101562 C 221.40625 141.996094 222.472656 141.941406 223.542969 141.941406 C 224.613281 141.941406 225.683594 141.996094 226.746094 142.101562 C 227.8125 142.207031 228.867188 142.363281 229.917969 142.570312 C 230.96875 142.78125 232.003906 143.039062 233.027344 143.351562 C 234.050781 143.660156 235.058594 144.019531 236.046875 144.429688 C 237.035156 144.839844 238 145.296875 238.945312 145.800781 C 239.890625 146.304688 240.804688 146.855469 241.695312 147.449219 C 242.585938 148.042969 243.445312 148.679688 244.269531 149.359375 C 245.097656 150.039062 245.890625 150.753906 246.648438 151.511719 C 247.402344 152.269531 248.121094 153.0625 248.800781 153.886719 C 249.476562 154.714844 250.113281 155.574219 250.710938 156.464844 C 251.304688 157.351562 251.851562 158.269531 252.359375 159.214844 C 252.863281 160.15625 253.320312 161.121094 253.730469 162.113281 C 254.136719 163.101562 254.5 164.105469 254.808594 165.128906 C 255.121094 166.152344 255.378906 167.191406 255.585938 168.242188 C 255.796875 169.289062 255.953125 170.347656 256.058594 171.410156 C 256.164062 172.476562 256.214844 173.542969 256.214844 174.613281 Z M 256.214844 174.613281 " fill-opacity="1" fill-rule="nonzero"/><path fill="#0b3954" d="M 240.195312 174.613281 C 240.195312 175.160156 240.167969 175.703125 240.113281 176.246094 C 240.0625 176.789062 239.980469 177.328125 239.875 177.863281 C 239.769531 178.398438 239.636719 178.925781 239.476562 179.445312 C 239.320312 179.96875 239.136719 180.480469 238.925781 180.984375 C 238.71875 181.488281 238.484375 181.980469 238.226562 182.460938 C 237.972656 182.945312 237.691406 183.410156 237.386719 183.863281 C 237.085938 184.316406 236.761719 184.753906 236.414062 185.175781 C 236.070312 185.597656 235.703125 186 235.316406 186.386719 C 234.933594 186.773438 234.527344 187.136719 234.105469 187.484375 C 233.683594 187.832031 233.246094 188.15625 232.792969 188.457031 C 232.339844 188.761719 231.875 189.039062 231.394531 189.296875 C 230.914062 189.554688 230.417969 189.789062 229.917969 189.996094 C 229.414062 190.207031 228.898438 190.386719 228.378906 190.546875 C 227.855469 190.707031 227.328125 190.835938 226.792969 190.945312 C 226.257812 191.050781 225.71875 191.128906 225.175781 191.183594 C 224.632812 191.238281 224.089844 191.265625 223.542969 191.265625 C 223 191.265625 222.457031 191.238281 221.914062 191.183594 C 221.371094 191.128906 220.832031 191.050781 220.296875 190.945312 C 219.761719 190.835938 219.234375 190.707031 218.710938 190.546875 C 218.191406 190.386719 217.675781 190.207031 217.171875 189.996094 C 216.667969 189.789062 216.175781 189.554688 215.695312 189.296875 C 215.214844 189.039062 214.746094 188.761719 214.292969 188.457031 C 213.839844 188.15625 213.402344 187.832031 212.980469 187.484375 C 212.5625 187.136719 212.15625 186.773438 211.769531 186.386719 C 211.386719 186 211.019531 185.597656 210.675781 185.175781 C 210.328125 184.753906 210.003906 184.316406 209.699219 183.863281 C 209.398438 183.410156 209.117188 182.945312 208.859375 182.460938 C 208.605469 181.980469 208.371094 181.488281 208.164062 180.984375 C 207.953125 180.480469 207.769531 179.96875 207.613281 179.445312 C 207.453125 178.925781 207.320312 178.398438 207.214844 177.863281 C 207.109375 177.328125 207.027344 176.789062 206.976562 176.246094 C 206.921875 175.703125 206.894531 175.160156 206.894531 174.613281 C 206.894531 174.070312 206.921875 173.523438 206.976562 172.980469 C 207.027344 172.441406 207.109375 171.902344 207.214844 171.367188 C 207.320312 170.832031 207.453125 170.304688 207.613281 169.78125 C 207.769531 169.257812 207.953125 168.746094 208.164062 168.242188 C 208.371094 167.738281 208.605469 167.246094 208.859375 166.765625 C 209.117188 166.285156 209.398438 165.816406 209.699219 165.363281 C 210.003906 164.910156 210.328125 164.472656 210.675781 164.050781 C 211.019531 163.628906 211.386719 163.226562 211.769531 162.839844 C 212.15625 162.457031 212.5625 162.089844 212.980469 161.742188 C 213.402344 161.398438 213.839844 161.074219 214.292969 160.769531 C 214.746094 160.46875 215.214844 160.1875 215.695312 159.929688 C 216.175781 159.671875 216.667969 159.441406 217.171875 159.230469 C 217.675781 159.023438 218.191406 158.839844 218.710938 158.679688 C 219.234375 158.523438 219.761719 158.390625 220.296875 158.285156 C 220.832031 158.179688 221.371094 158.097656 221.914062 158.042969 C 222.457031 157.992188 223 157.964844 223.542969 157.964844 C 224.089844 157.964844 224.632812 157.992188 225.175781 158.042969 C 225.71875 158.097656 226.257812 158.179688 226.792969 158.285156 C 227.328125 158.390625 227.855469 158.523438 228.378906 158.679688 C 228.898438 158.839844 229.414062 159.023438 229.917969 159.230469 C 230.417969 159.441406 230.914062 159.671875 231.394531 159.929688 C 231.875 160.1875 232.339844 160.46875 232.792969 160.769531 C 233.246094 161.074219 233.683594 161.398438 234.105469 161.742188 C 234.527344 162.089844 234.933594 162.457031 235.316406 162.839844 C 235.703125 163.226562 236.070312 163.628906 236.414062 164.050781 C 236.761719 164.472656 237.085938 164.910156 237.386719 165.363281 C 237.691406 165.816406 237.972656 166.285156 238.226562 166.765625 C 238.484375 167.246094 238.71875 167.738281 238.925781 168.242188 C 239.136719 168.746094 239.320312 169.257812 239.476562 169.78125 C 239.636719 170.304688 239.769531 170.832031 239.875 171.367188 C 239.980469 171.902344 240.0625 172.441406 240.113281 172.980469 C 240.167969 173.523438 240.195312 174.070312 240.195312 174.613281 Z M 240.195312 174.613281 " fill-opacity="1" fill-rule="nonzero"/><path fill="#ffffff" d="M 227.785156 180.269531 C 227.785156 180.773438 227.734375 181.273438 227.636719 181.769531 C 227.539062 182.265625 227.394531 182.746094 227.199219 183.214844 C 227.007812 183.679688 226.769531 184.125 226.488281 184.542969 C 226.207031 184.964844 225.886719 185.355469 225.53125 185.710938 C 225.175781 186.066406 224.785156 186.386719 224.363281 186.667969 C 223.945312 186.949219 223.5 187.1875 223.035156 187.378906 C 222.566406 187.574219 222.085938 187.71875 221.589844 187.816406 C 221.09375 187.914062 220.59375 187.964844 220.089844 187.964844 C 219.582031 187.964844 219.082031 187.914062 218.585938 187.816406 C 218.089844 187.71875 217.609375 187.574219 217.144531 187.378906 C 216.675781 187.1875 216.234375 186.949219 215.8125 186.667969 C 215.394531 186.386719 215.003906 186.066406 214.648438 185.710938 C 214.289062 185.355469 213.96875 184.964844 213.691406 184.542969 C 213.410156 184.125 213.171875 183.679688 212.976562 183.214844 C 212.785156 182.746094 212.640625 182.265625 212.539062 181.769531 C 212.441406 181.273438 212.390625 180.773438 212.390625 180.269531 C 212.390625 179.761719 212.441406 179.261719 212.539062 178.765625 C 212.640625 178.273438 212.785156 177.789062 212.976562 177.324219 C 213.171875 176.855469 213.410156 176.414062 213.691406 175.992188 C 213.96875 175.574219 214.289062 175.183594 214.648438 174.828125 C 215.003906 174.46875 215.394531 174.148438 215.8125 173.871094 C 216.234375 173.589844 216.675781 173.351562 217.144531 173.15625 C 217.609375 172.964844 218.089844 172.820312 218.585938 172.71875 C 219.082031 172.621094 219.582031 172.570312 220.089844 172.570312 C 220.59375 172.570312 221.09375 172.621094 221.589844 172.71875 C 222.085938 172.820312 222.566406 172.964844 223.035156 173.15625 C 223.5 173.351562 223.945312 173.589844 224.363281 173.871094 C 224.785156 174.148438 225.175781 174.46875 225.53125 174.828125 C 225.886719 175.183594 226.207031 175.574219 226.488281 175.992188 C 226.769531 176.414062 227.007812 176.855469 227.199219 177.324219 C 227.394531 177.789062 227.539062 178.273438 227.636719 178.765625 C 227.734375 179.261719 227.785156 179.761719 227.785156 180.269531 Z M 227.785156 180.269531 " fill-opacity="1" fill-rule="nonzero"/><g clip-path="url(#a77e2f0c3b)"><path fill="#0b3954" d="M 286.375 83.984375 L 189.617188 53.039062 L 88.777344 83.984375 L 87.832031 84.453125 L 88.777344 84.925781 L 131.65625 105.34375 C 131.65625 105.816406 131.5 106.289062 131.5 106.914062 L 131.5 123.566406 C 147.207031 113.199219 167.15625 108.015625 187.417969 108.015625 C 206.265625 108.015625 227.15625 111.785156 243.335938 122.308594 L 243.335938 106.757812 C 243.335938 106.445312 243.335938 105.972656 243.335938 105.660156 L 286.214844 84.769531 L 287.160156 84.296875 Z M 286.375 83.984375 " fill-opacity="1" fill-rule="nonzero"/></g><path fill="#ffffff" d="M 104.011719 83.824219 C 107.625 84.453125 104.011719 90.894531 104.011719 90.894531 C 104.011719 90.894531 100.558594 84.453125 104.011719 83.824219 Z M 104.011719 83.824219 " fill-opacity="1" fill-rule="nonzero"/><path fill="#ffffff" d="M 104.011719 90.738281 L 107.78125 137.859375 L 100.398438 137.859375 Z M 104.011719 90.738281 " fill-opacity="1" fill-rule="nonzero"/><g fill="#ffffff" fill-opacity="1"><g transform="translate(184.08862, 214.3028)"><g><path d="M 2 -1.390625 C 2 -1.984375 2.132812 -2.429688 2.40625 -2.734375 C 2.675781 -3.035156 3.0625 -3.1875 3.5625 -3.1875 C 4.0625 -3.1875 4.453125 -3.035156 4.734375 -2.734375 C 5.023438 -2.429688 5.171875 -1.984375 5.171875 -1.390625 C 5.171875 -0.828125 5.023438 -0.390625 4.734375 -0.078125 C 4.453125 0.222656 4.0625 0.375 3.5625 0.375 C 3.113281 0.375 2.738281 0.238281 2.4375 -0.03125 C 2.144531 -0.3125 2 -0.765625 2 -1.390625 Z M 2 -1.390625 "/></g></g></g></svg>